<svg xmlns="http://www.w3.org/2000/svg" viewBox="0 0 800 600">
  <!-- Define some reusable gradients and shadows -->
  <defs>
    <linearGradient id="blueGradient" x1="0%" y1="0%" x2="0%" y2="100%">
      <stop offset="0%" style="stop-color:#4f46e5;stop-opacity:0.2" />
      <stop offset="100%" style="stop-color:#2962FF;stop-opacity:0.15" />
    </linearGradient>
    
    <linearGradient id="pdfGradient" x1="0%" y1="0%" x2="0%" y2="100%">
      <stop offset="0%" style="stop-color:#ef4444;stop-opacity:1" />
      <stop offset="100%" style="stop-color:#b91c1c;stop-opacity:1" />
    </linearGradient>
    
    <filter id="shadow" x="-20%" y="-20%" width="140%" height="140%">
      <feDropShadow dx="0" dy="4" stdDeviation="4" flood-opacity="0.2"/>
    </filter>
  </defs>

  <!-- Background -->
  <rect x="0" y="0" width="800" height="600" fill="#f8fafc" rx="0"/>
  
  <!-- Browser Window with shadow -->
  <rect x="50" y="50" width="700" height="500" rx="10" fill="#ffffff" stroke="#e5e7eb" stroke-width="2" filter="url(#shadow)"/>
  
  <!-- Browser Chrome UI -->
  <rect x="50" y="50" width="700" height="80" rx="10 10 0 0" fill="#f9fafb"/>
  
  <!-- Tab -->
  <rect x="70" y="50" width="180" height="30" rx="5 5 0 0" fill="#ffffff" stroke="#e5e7eb" stroke-width="1"/>
  <circle cx="90" cy="65" r="8" fill="#e5e7eb"/>
  <text x="110" y="69" font-family="Arial" font-size="12" fill="#374151">example.com</text>
  
  <!-- Browser Controls -->
  <circle cx="80" cy="100" r="5" fill="#ef4444"/>
  <circle cx="100" cy="100" r="5" fill="#fbbf24"/>
  <circle cx="120" cy="100" r="5" fill="#34d399"/>
  
  <!-- URL Bar -->
  <rect x="140" y="90" width="440" height="20" rx="5" fill="#ffffff" stroke="#e5e7eb" stroke-width="1"/>
  <text x="150" y="104" font-family="Arial" font-size="11" fill="#6b7280">https://example.com/long-article</text>
  
  <!-- Extension area -->
  <rect x="600" y="90" width="130" height="20" fill="#f9fafb"/>
  
  <!-- BossPDF Extension icon in toolbar -->
  <circle cx="620" cy="100" r="8" fill="#2962FF"/>
  <text x="620" y="104" font-family="Arial" font-size="11" fill="white" text-anchor="middle" dominant-baseline="middle">PDF</text>
  
  <!-- Webpage Content Area -->
  <rect x="70" y="130" width="660" height="400" fill="#ffffff"/>
  
  <!-- Long-form webpage simulation (lines of content) -->
  <rect x="100" y="150" width="600" height="16" rx="2" fill="#f3f4f6"/>
  <rect x="100" y="180" width="500" height="12" rx="2" fill="#f3f4f6"/>
  <rect x="100" y="200" width="580" height="12" rx="2" fill="#f3f4f6"/>
  <rect x="100" y="220" width="400" height="12" rx="2" fill="#f3f4f6"/>
  <rect x="100" y="240" width="550" height="12" rx="2" fill="#f3f4f6"/>
  
  <!-- Image placeholder -->
  <rect x="100" y="270" width="600" height="100" rx="4" fill="#e5e7eb"/>
  
  <!-- More content -->
  <rect x="100" y="390" width="600" height="12" rx="2" fill="#f3f4f6"/>
  <rect x="100" y="410" width="550" height="12" rx="2" fill="#f3f4f6"/>
  <rect x="100" y="430" width="500" height="12" rx="2" fill="#f3f4f6"/>
  <rect x="100" y="450" width="580" height="12" rx="2" fill="#f3f4f6"/>
  <rect x="100" y="480" width="600" height="30" rx="4" fill="#e5e7eb"/>
  
  <!-- Cursor animation -->
  <g id="cursor">
    <path d="M0,0 L10,5 L5,8 L0,15 Z" fill="#333333" stroke="#ffffff" stroke-width="1"/>
    
    <!-- Animation: Move to extension icon and click -->
    <animateMotion
      path="M200,250 C400,150 500,100 620,100"
      begin="0.5s"
      dur="1.5s"
      fill="freeze"
      repeatCount="indefinite"
      restart="whenNotActive"/>
      
    <animate
      attributeName="opacity"
      values="1;1;0;0;1"
      keyTimes="0;0.32;0.33;0.74;0.75"
      dur="6s"
      repeatCount="indefinite"/>
  </g>
  
  <!-- Capture Animation -->
  <rect x="70" y="130" width="660" height="0" fill="url(#blueGradient)" opacity="0.8">
    <animate 
      attributeName="height"
      values="0;0;0;400" 
      keyTimes="0;0.33;0.34;0.6"
      dur="6s"
      repeatCount="indefinite"/>
    
    <animate 
      attributeName="opacity"
      values="0;0;0.8;0.8;0" 
      keyTimes="0;0.33;0.34;0.6;0.61"
      dur="6s"
      repeatCount="indefinite"/>
  </rect>
  
  <!-- Scanning status message -->
  <g>
    <rect x="320" y="280" width="160" height="40" rx="20" fill="#2962FF" opacity="0.9"/>
    <text x="400" y="305" font-family="Arial" font-size="14" fill="white" text-anchor="middle">Capturing...</text>
    
    <animate 
      attributeName="opacity"
      values="0;0;0.8;0.8;0" 
      keyTimes="0;0.35;0.36;0.58;0.59"
      dur="6s"
      repeatCount="indefinite"/>
  </g>
  
  <!-- PDF Result Animation -->
  <g id="pdfResult">
    <!-- PDF Document Icon -->
    <rect x="300" y="200" width="200" height="240" rx="5" fill="#ffffff" stroke="#d1d5db" stroke-width="2" filter="url(#shadow)"/>
    <rect x="320" y="220" width="160" height="20" rx="2" fill="#f3f4f6"/>
    <rect x="320" y="250" width="160" height="120" rx="2" fill="#f3f4f6"/>
    
    <!-- BossPDF Watermark -->
    <text x="400" y="210" font-family="Arial" font-size="10" fill="#9ca3af" text-anchor="middle" opacity="0.6">Created with BossPDF</text>
    
    <!-- PDF Logo -->
    <rect x="350" y="390" width="100" height="30" rx="3" fill="url(#pdfGradient)"/>
    <text x="400" y="410" font-family="Arial" font-weight="bold" font-size="16" fill="white" text-anchor="middle" dominant-baseline="middle">PDF</text>
    
    <!-- Success checkmark -->
    <circle cx="700" cy="130" r="20" fill="#22c55e" opacity="0"/>
    <path d="M690,130 L697,137 L710,124" stroke="white" stroke-width="3" fill="none" opacity="0">
      <animate
        attributeName="opacity"
        values="0;0;1"
        keyTimes="0;0.62;0.63"
        dur="6s"
        repeatCount="indefinite"/>
    </circle>
    
    <!-- PDF Animation -->
    <animateTransform
      attributeName="transform"
      type="translate"
      values="800,0; 800,0; 0,0; 0,0; 800,0"
      keyTimes="0;0.61;0.65;0.95;0.99"
      dur="6s"
      repeatCount="indefinite"/>
    
    <animate
      attributeName="opacity"
      values="0;0;1;1;0"
      keyTimes="0;0.61;0.62;0.95;0.96"
      dur="6s"
      repeatCount="indefinite"/>
  </g>
  
  <!-- Download notification -->
  <g>
    <rect x="500" y="520" width="240" height="50" rx="5" fill="#ffffff" filter="url(#shadow)"/>
    <text x="560" y="545" font-family="Arial" font-size="12" fill="#374151" dominant-baseline="middle">webpage-screenshot.pdf saved</text>
    <circle cx="530" cy="545" r="12" fill="#4ade80"/>
    <path d="M525,545 L530,550 L537,543" stroke="white" stroke-width="2" fill="none"/>
    
    <animate
      attributeName="opacity"
      values="0;0;1;1;0"
      keyTimes="0;0.7;0.71;0.98;0.99"
      dur="6s"
      repeatCount="indefinite"/>
  </g>
</svg>